<?xml version="1.0" standalone="no"?>
<!DOCTYPE svg PUBLIC "-//W3C//DTD SVG 20010904//EN"
 "http://www.w3.org/TR/2001/REC-SVG-20010904/DTD/svg10.dtd">
<svg version="1.0" xmlns="http://www.w3.org/2000/svg"
 width="750.000000pt" height="750.000000pt" viewBox="0 0 750.000000 750.000000"
 preserveAspectRatio="xMidYMid meet">
<metadata>
Created by potrace 1.11, written by Peter Selinger 2001-2013
</metadata>
<g transform="translate(0.000000,750.000000) scale(0.100000,-0.100000)"
fill="#000000" stroke="none">
<path d="M4854 7101 c-129 -13 -276 -32 -314 -41 -19 -5 -62 -14 -95 -20 -33
-6 -78 -16 -100 -22 -22 -5 -60 -13 -85 -18 -60 -11 -123 -30 -134 -41 -6 -5
-20 -9 -33 -9 -12 0 -32 -4 -45 -9 -13 -6 -61 -21 -108 -36 -47 -14 -94 -30
-105 -34 -11 -5 -40 -17 -65 -26 -42 -17 -87 -35 -135 -55 -11 -4 -36 -14 -55
-20 -136 -48 -584 -269 -641 -317 -8 -7 -21 -13 -27 -13 -6 0 -36 -16 -66 -35
-30 -19 -57 -35 -59 -35 -2 0 -54 -34 -116 -75 -62 -41 -117 -75 -122 -75 -5
0 -9 -4 -9 -10 0 -5 -5 -10 -11 -10 -8 0 -111 -72 -154 -107 -5 -5 -37 -29
-70 -53 -33 -24 -62 -46 -65 -49 -3 -4 -23 -19 -45 -36 -22 -16 -42 -31 -45
-34 -3 -4 -54 -49 -115 -101 -60 -52 -130 -114 -155 -137 -25 -23 -48 -39 -51
-35 -4 4 -17 59 -28 122 -12 63 -35 183 -51 265 -16 83 -36 193 -46 245 -9 52
-23 105 -31 118 -14 22 -20 23 -99 20 -101 -4 -91 14 -129 -232 -14 -94 -28
-173 -31 -177 -4 -8 -13 -56 -73 -389 -54 -300 -54 -300 -87 -300 l-25 0 2
-169 2 -170 -54 -68 c-29 -37 -56 -70 -60 -73 -17 -14 -245 -351 -304 -450
-37 -63 -76 -127 -86 -141 -28 -41 -193 -377 -223 -454 -16 -38 -43 -108 -62
-155 -143 -359 -244 -890 -244 -1284 0 -176 28 -438 59 -546 10 -36 27 -96 36
-135 26 -100 138 -345 204 -445 31 -47 58 -87 61 -90 3 -3 18 -25 34 -50 44
-67 229 -261 315 -330 25 -19 49 -39 55 -45 50 -46 124 -98 203 -142 26 -14
64 -35 83 -46 90 -52 182 -97 195 -97 9 0 23 -4 33 -9 9 -5 37 -17 62 -26 25
-10 54 -21 65 -25 33 -14 117 -37 175 -49 296 -61 303 -61 585 -62 261 0 468
15 565 41 19 6 49 10 67 10 18 0 42 4 55 9 13 5 68 17 123 26 55 9 114 20 130
25 32 9 182 52 255 74 25 8 65 19 90 26 48 13 215 73 265 95 42 18 67 28 175
70 103 41 115 46 365 175 204 105 239 124 280 156 18 13 34 24 37 24 3 0 56
34 118 75 62 41 114 75 117 75 12 0 113 73 149 107 7 7 15 13 18 13 3 0 16 9
28 19 13 10 93 75 178 143 242 194 525 468 735 713 33 39 68 79 78 90 10 11
39 47 63 80 25 33 54 71 65 85 41 52 17 52 -36 0 -41 -40 -58 -51 -66 -43 -9
9 -6 24 12 60 13 26 29 54 35 61 8 8 10 22 5 40 -4 15 -7 32 -5 37 2 6 8 29
14 52 18 70 89 118 162 110 22 -3 45 1 56 9 29 20 33 6 11 -38 -11 -22 -18
-43 -14 -46 3 -4 9 -2 13 4 4 6 28 37 53 70 25 32 54 73 65 91 10 17 57 94
103 170 46 76 90 145 96 153 16 18 68 122 173 340 69 142 242 603 242 642 0 7
18 94 39 193 35 161 49 265 68 522 3 40 0 168 -7 285 -34 604 -215 1060 -560
1408 -30 30 -66 64 -80 75 -14 11 -57 45 -95 75 -39 30 -72 57 -75 60 -3 4
-12 10 -20 13 -8 4 -37 20 -65 35 -242 135 -339 173 -690 264 -44 11 -88 25
-97 29 -10 5 -37 9 -60 9 -24 0 -79 7 -123 16 -93 17 -494 27 -621 15z m546
-240 c80 -11 125 -20 210 -41 19 -5 67 -16 105 -26 70 -16 113 -29 150 -44
135 -56 220 -90 228 -90 4 0 26 -11 48 -26 40 -25 54 -33 164 -94 33 -18 65
-38 71 -44 6 -6 28 -24 48 -41 21 -16 46 -37 56 -45 10 -8 40 -33 67 -55 28
-22 64 -58 81 -80 17 -22 39 -49 49 -60 63 -69 109 -135 172 -242 193 -332
287 -821 245 -1283 -8 -91 -17 -183 -20 -205 -17 -114 -98 -436 -139 -550 -26
-71 -57 -159 -70 -195 -66 -188 -363 -721 -517 -929 -97 -131 -253 -336 -268
-351 -8 -9 -28 -31 -44 -50 -16 -19 -52 -60 -80 -91 -28 -30 -82 -91 -121
-134 -63 -70 -157 -164 -280 -280 -23 -22 -71 -67 -106 -100 -35 -34 -100 -90
-144 -125 -44 -36 -81 -68 -83 -72 -2 -5 -10 -8 -17 -8 -7 0 -15 -3 -17 -7 -1
-5 -32 -30 -67 -58 -35 -27 -77 -62 -93 -77 -17 -14 -46 -34 -64 -44 -19 -10
-34 -22 -34 -26 0 -5 -4 -8 -9 -8 -5 0 -65 -37 -133 -82 -132 -89 -155 -103
-178 -114 -8 -4 -17 -10 -20 -14 -3 -3 -43 -25 -90 -49 -125 -63 -224 -115
-230 -121 -9 -9 -158 -80 -168 -80 -6 0 -23 -6 -39 -14 -50 -26 -122 -56 -134
-56 -6 0 -23 -6 -37 -14 -15 -7 -40 -19 -57 -26 -16 -7 -43 -18 -60 -25 -33
-14 -63 -24 -145 -48 -30 -9 -84 -26 -119 -37 -35 -11 -71 -20 -79 -20 -8 0
-28 -6 -45 -14 -18 -8 -45 -17 -62 -20 -16 -4 -59 -14 -95 -22 -36 -8 -90 -19
-120 -24 -30 -5 -86 -16 -125 -25 -77 -17 -171 -29 -370 -45 -139 -12 -508 -5
-560 10 -16 5 -73 16 -125 25 -150 25 -222 45 -282 76 -10 5 -23 9 -30 9 -15
0 -146 47 -173 62 -11 7 -45 25 -75 41 -132 70 -163 89 -217 128 -32 24 -59
46 -61 51 -2 4 -8 8 -14 8 -5 0 -23 9 -38 20 -25 18 -38 20 -93 14 -62 -6 -66
-6 -82 20 -16 25 -17 30 -2 66 14 37 14 40 -11 77 -14 21 -35 47 -47 58 -45
43 -188 268 -241 381 -153 323 -207 735 -154 1181 39 333 111 614 245 953 42
106 192 415 240 495 20 33 46 76 56 95 11 19 31 53 44 75 13 22 27 47 31 55 4
8 10 17 13 20 4 3 31 41 61 85 29 44 57 82 60 85 4 3 12 14 18 26 6 11 48 68
94 126 46 58 94 120 108 138 60 78 73 89 120 92 45 3 45 3 48 43 6 99 32 120
32 26 0 -37 5 -63 14 -70 9 -8 67 -11 182 -9 l169 3 3 149 c3 156 -1 172 -41
178 -18 2 -24 12 -31 60 l-9 56 55 54 c30 29 81 76 114 105 32 28 71 62 85 75
15 12 37 32 50 42 13 11 40 33 60 50 57 49 79 66 85 66 3 0 16 9 28 20 31 28
236 180 243 180 3 0 21 11 39 25 18 14 37 25 43 25 6 0 11 5 11 10 0 6 4 10
10 10 5 0 32 16 59 35 26 19 53 35 59 35 6 0 15 6 19 13 4 6 26 21 48 33 39
20 97 52 205 113 68 38 212 108 385 186 89 41 119 53 180 75 33 12 74 27 90
34 17 7 46 19 65 26 19 6 44 16 55 21 17 8 135 44 295 90 19 6 55 14 80 19 25
5 59 13 75 18 17 6 64 15 105 22 41 7 89 16 105 21 17 5 59 11 95 15 36 3 92
9 125 14 82 11 561 5 665 -9z m-3824 -1472 c9 -16 -51 -73 -69 -66 -14 5 -15
21 -1 65 4 15 60 16 70 1z m-536 -858 c0 -6 -4 -13 -10 -16 -5 -3 -10 1 -10 9
0 9 5 16 10 16 6 0 10 -4 10 -9z"/>
<path d="M5050 6492 c0 -18 12 -42 21 -42 14 0 10 26 -6 40 -9 8 -15 8 -15 2z"/>
<path d="M5077 6418 c-13 -23 -21 -28 -26 -19 -17 27 -20 -8 -5 -50 36 -98 8
-344 -44 -397 -15 -15 -30 -28 -35 -29 -29 -5 -32 -11 -19 -32 17 -29 16 -32
-18 -29 -27 2 -45 18 -20 18 6 0 10 9 10 20 0 11 -6 20 -14 20 -19 0 -86 70
-92 98 -8 31 -18 28 -29 -10 -9 -27 -15 -32 -42 -32 -19 -1 -35 5 -38 12 -8
23 -6 52 5 52 6 0 10 8 10 18 0 13 -2 14 -9 3 -7 -10 -13 -11 -30 -2 -18 10
-21 9 -23 -11 0 -13 -1 -29 0 -37 0 -8 3 -58 6 -112 5 -81 4 -98 -9 -103 -8
-3 -22 -3 -31 1 -13 5 -15 22 -14 97 0 50 -2 106 -6 125 -5 23 -3 36 7 42 10
6 6 8 -11 6 -18 -3 -26 -11 -28 -30 -4 -31 -8 -33 -29 -11 -15 14 -15 23 -1
97 9 45 19 91 23 103 7 23 -19 59 -36 48 -5 -3 -14 7 -19 22 -15 37 -24 25
-66 -85 -182 -485 -114 -1187 147 -1514 107 -133 283 -179 386 -101 17 13 36
24 42 24 18 0 122 127 165 204 82 143 146 360 167 565 15 143 6 472 -15 598
-27 157 -109 389 -128 361 -10 -15 -41 16 -70 71 -22 39 -38 39 -61 -1z m135
-413 c16 -21 16 -29 5 -62 -9 -27 -18 -38 -32 -38 -16 0 -21 8 -23 39 -7 80
16 108 50 61z m-392 -36 c0 -6 -5 -20 -11 -31 -13 -25 -30 -7 -22 23 6 20 33
27 33 8z m125 -239 c24 -47 20 -151 -7 -204 -10 -18 -11 -18 -24 5 -7 13 -13
36 -14 50 0 15 -7 42 -15 61 -11 28 -12 44 -3 74 5 22 12 42 14 46 8 13 35 -4
49 -32z m-195 -52 c0 -13 -4 -29 -9 -37 -13 -20 -24 4 -17 35 8 30 26 32 26 2z
m88 -51 c2 -19 -1 -27 -12 -27 -11 0 -16 10 -16 31 0 38 24 35 28 -4z m-44
-43 c10 -4 16 -18 16 -35 0 -24 -4 -29 -24 -29 -13 0 -31 -3 -40 -6 -30 -12
-32 27 -2 53 30 26 29 25 50 17z m216 -141 c0 -15 -4 -14 -20 7 -27 34 -27 61
0 32 11 -12 20 -29 20 -39z m160 -75 c0 -14 -5 -18 -15 -14 -9 3 -18 -1 -21
-9 -11 -26 -34 -17 -34 13 0 37 4 39 40 34 22 -3 30 -10 30 -24z m-160 0 c0
-36 -11 -68 -21 -62 -5 3 -9 23 -9 45 0 28 4 39 15 39 9 0 15 -9 15 -22z m60
-60 c0 -25 -12 -58 -21 -58 -10 0 -12 31 -3 54 7 19 24 21 24 4z m-135 -28 c3
-5 17 -10 31 -10 24 0 24 -1 9 -17 -12 -12 -19 -13 -24 -4 -4 6 -15 9 -24 5
-13 -4 -17 -1 -17 15 0 22 14 28 25 11z m85 -52 c0 -18 -2 -20 -9 -8 -6 8 -7
18 -5 22 9 14 14 9 14 -14z"/>
<path d="M4760 6053 c0 -14 1 -24 3 -22 1 2 8 11 15 20 10 14 10 18 -3 23 -11
4 -15 -1 -15 -21z"/>
<path d="M4630 5970 c0 -5 5 -10 11 -10 5 0 7 5 4 10 -3 6 -8 10 -11 10 -2 0
-4 -4 -4 -10z"/>
<path d="M1522 4559 c-99 -50 -170 -165 -219 -354 -26 -103 -28 -123 -28 -315
0 -207 3 -234 47 -397 42 -160 122 -286 205 -324 132 -60 259 11 347 193 24
49 46 85 49 81 4 -3 7 -69 7 -145 l0 -138 180 0 180 0 0 139 c0 132 11 186 24
124 4 -16 26 -80 49 -143 l43 -115 386 -3 387 -2 8 47 8 48 5 -45 5 -45 142
-3 142 -3 5 33 c3 18 5 87 3 153 -2 118 -2 119 -27 125 -19 5 -24 12 -22 31 5
46 9 49 72 49 63 0 67 -3 72 -50 3 -21 -2 -26 -24 -28 l-28 -3 0 -155 0 -154
169 0 168 0 7 53 c8 67 8 221 0 241 -3 9 -14 16 -25 16 -10 0 -22 8 -28 18 -8
16 -41 184 -77 392 -8 47 -28 159 -45 250 -16 91 -39 215 -50 275 -13 72 -26
114 -36 123 -10 7 -47 12 -89 12 -85 0 -74 18 -110 -175 -14 -77 -38 -210 -54
-295 -15 -85 -45 -245 -65 -354 -39 -212 -50 -255 -64 -240 -6 5 -1 56 10 119
10 61 19 117 19 125 0 8 -21 29 -45 45 -25 17 -45 33 -45 38 0 4 -7 7 -15 7
-8 0 -15 5 -15 11 0 5 -4 8 -9 5 -5 -3 -12 -27 -16 -53 -3 -27 -9 -59 -11 -73
-5 -24 -5 -24 11 3 l16 28 21 -26 c29 -37 33 -99 11 -169 -27 -86 -43 -85 -36
3 4 47 2 71 -5 71 -6 0 -13 -6 -15 -12 -3 -7 -6 5 -7 27 l-2 40 -14 -32 c-8
-18 -16 -33 -19 -33 -3 0 -5 107 -5 238 0 154 4 232 10 222 5 -8 12 -33 16
-56 10 -66 16 -70 63 -39 22 15 41 32 41 36 0 5 7 9 15 9 22 0 29 45 17 113
-6 34 -20 118 -31 187 -11 69 -26 149 -32 178 l-10 52 -132 1 c-73 1 -145 3
-162 5 -16 2 -81 1 -142 -2 l-113 -6 0 -154 0 -154 35 0 35 0 -2 -377 -3 -378
-52 -3 -51 -3 -27 58 c-83 177 -101 235 -77 245 22 8 75 99 94 162 29 94 31
290 4 381 -26 88 -60 149 -106 188 -51 44 -103 51 -353 52 -149 0 -178 -2
-182 -15 -6 -20 -5 -248 1 -282 4 -22 12 -27 37 -30 l32 -3 0 -375 0 -375 -30
0 c-34 0 -34 4 -14 76 l12 46 -54 89 c-30 48 -58 88 -63 87 -6 -1 -22 -33 -37
-73 -69 -179 -143 -241 -202 -170 -100 118 -118 508 -32 656 22 38 30 44 58
44 55 -1 90 -65 143 -262 9 -33 21 -58 29 -58 7 0 41 19 75 41 58 39 61 44 56
73 -3 17 -19 137 -36 266 -16 129 -33 242 -36 252 -4 14 -16 18 -58 18 -28 0
-57 -5 -63 -11 -9 -9 -18 -8 -37 5 -14 9 -52 19 -83 22 -47 4 -66 1 -101 -17z
m820 -376 c23 -21 25 -99 2 -131 -12 -18 -25 -22 -70 -22 l-54 0 0 85 0 85 52
0 c34 0 58 -6 70 -17z m586 -13 c5 -34 -8 -130 -17 -130 -13 0 -22 76 -15 120
7 44 27 49 32 10z m-1534 -91 c-14 -23 -5 -264 12 -310 12 -31 17 -82 18 -176
1 -73 1 -133 -1 -133 -1 0 -14 21 -29 48 -15 26 -33 54 -40 62 -31 38 -53 298
-36 420 l9 65 2 -97 c0 -53 5 -99 10 -103 13 -7 19 14 32 125 11 92 15 110 25
110 3 0 2 -5 -2 -11z m2136 -164 c0 -25 -4 -45 -10 -45 -5 0 -10 20 -10 45 0
25 5 45 10 45 6 0 10 -20 10 -45z m-1450 -141 c0 -27 19 -42 30 -24 14 23 17
-26 8 -136 -5 -59 -12 -111 -15 -114 -3 -3 -3 46 -1 108 3 61 2 112 -3 112 -5
0 -9 -9 -9 -20 0 -11 -4 -20 -10 -20 -6 0 -10 -45 -11 -112 0 -62 -4 -122 -9
-133 -5 -12 -9 61 -9 184 -1 180 1 202 14 191 8 -7 15 -23 15 -36z m1630 -21
c31 -55 33 -62 34 -173 1 -112 0 -116 -26 -144 l-26 -29 0 44 c1 24 -9 75 -21
114 -13 42 -21 91 -20 123 2 35 -2 56 -10 62 -10 6 -9 14 3 39 9 17 21 29 25
26 5 -3 24 -31 41 -62z m-504 -9 c24 -20 41 -41 37 -47 -4 -6 -11 -4 -18 6 -7
10 -20 17 -29 17 -9 0 -16 5 -16 10 0 6 -7 10 -15 10 -8 0 -15 9 -15 20 0 27
5 26 56 -16z m-282 -46 c3 -13 6 -51 6 -85 l0 -62 47 -3 c25 -2 48 -8 50 -14
5 -15 -49 -34 -93 -34 -32 0 -33 1 -37 53 -10 112 -6 167 12 167 5 0 11 -10
15 -22z m-907 -85 c-2 -16 -4 -5 -4 22 0 28 2 40 4 28 2 -13 2 -35 0 -50z
m241 -37 c30 -86 29 -96 -8 -96 l-30 0 0 80 c0 44 3 80 8 80 4 0 17 -29 30
-64z m-348 24 c0 -11 -2 -20 -4 -20 -2 0 -6 9 -9 20 -3 11 -1 20 4 20 5 0 9
-9 9 -20z"/>
<path d="M3906 4561 c-3 -5 -24 -118 -46 -251 -23 -134 -43 -247 -46 -252 -10
-15 17 -48 72 -89 31 -22 58 -39 61 -36 2 3 13 41 24 84 35 140 67 204 70 141
4 -61 -3 -674 -8 -680 -2 -5 -18 -8 -34 -8 l-30 0 3 -152 3 -153 174 0 174 0
2 142 c3 151 1 158 -45 165 -21 2 -26 10 -32 48 -3 25 -10 61 -15 80 -8 31
-10 25 -16 -54 -4 -49 -13 -100 -20 -114 -14 -29 -57 -41 -57 -16 0 10 6 13
19 9 17 -5 18 0 17 64 0 38 -4 67 -8 64 -5 -2 -8 -11 -8 -19 0 -8 -4 -14 -10
-14 -9 0 -11 44 -4 88 3 12 11 22 19 22 11 0 15 13 16 53 0 28 2 66 3 82 1 17
3 50 4 75 4 81 22 22 23 -75 0 -49 4 -99 9 -110 7 -16 9 -14 9 15 1 19 8 57
16 84 11 36 15 99 15 238 0 103 4 188 9 188 9 0 71 -181 71 -209 0 -9 4 -23
10 -31 7 -12 20 -6 74 30 72 49 71 47 55 151 -12 77 -8 102 16 93 13 -6 15
-49 13 -373 l-3 -366 -30 -5 -30 -5 -3 -153 -3 -152 175 0 175 0 3 140 c2 77
2 145 0 150 -2 6 -14 10 -27 10 -13 0 -28 6 -32 14 -4 8 -6 176 -3 373 5 349
5 358 25 359 11 1 26 2 33 3 9 1 12 39 12 156 l0 155 -177 -2 -178 -3 -1 -40
c-1 -78 -6 -79 -20 -6 -19 104 -16 101 -75 101 -42 0 -52 -3 -56 -20 -5 -19
-14 -20 -138 -20 -125 0 -134 1 -140 20 -5 16 -15 20 -55 20 -27 0 -51 -4 -54
-9z m253 -1103 c1 -5 -3 -8 -9 -8 -5 0 -10 12 -9 28 0 24 1 25 9 7 5 -11 9
-23 9 -27z"/>
<path d="M5067 4528 c-21 -6 -61 -32 -91 -59 -182 -166 -249 -609 -151 -1004
21 -87 80 -200 131 -251 149 -148 341 -83 432 146 65 164 86 310 79 551 -6
210 -22 290 -87 424 -36 77 -97 155 -119 155 -5 0 -14 6 -18 14 -15 26 -119
40 -176 24z m110 -366 c36 -54 48 -132 48 -317 0 -211 -19 -308 -70 -359 -33
-32 -61 -20 -89 37 -36 75 -49 177 -44 352 4 127 9 161 30 221 14 40 32 79 39
88 22 25 61 15 86 -22z m-249 -256 c-3 -97 0 -117 15 -133 9 -11 14 -22 11
-25 -3 -4 -1 -15 4 -25 12 -22 5 -36 -20 -46 -11 -4 -21 0 -26 11 -17 31 -4
332 14 332 2 0 3 -51 2 -114z m462 -15 c0 -22 19 -41 35 -34 31 11 30 -241 -1
-317 -8 -19 -27 -52 -41 -73 l-26 -37 -20 21 c-19 21 -19 21 1 152 12 73 24
173 28 224 4 51 11 90 15 87 5 -3 9 -13 9 -23z m-433 -93 c-3 -8 -6 -5 -6 6
-1 11 2 17 5 13 3 -3 4 -12 1 -19z m-108 -163 l0 -30 -15 28 c-9 17 -12 37 -8
50 7 21 7 21 15 2 4 -11 8 -33 8 -50z"/>
<path d="M4932 3710 c0 -14 2 -19 5 -12 2 6 2 18 0 25 -3 6 -5 1 -5 -13z"/>
<path d="M5455 4488 c-3 -13 -4 -81 -3 -153 2 -107 6 -130 18 -131 8 -1 23 -2
33 -3 15 -1 17 -15 17 -148 0 -82 -3 -246 -7 -365 l-6 -218 -23 0 c-13 0 -25
-4 -28 -9 -9 -14 -10 -290 -2 -298 4 -5 76 -8 159 -8 l152 0 5 97 c3 53 8 100
12 103 8 8 10 0 33 -114 9 -41 18 -77 21 -80 7 -8 154 -11 177 -5 16 5 17 23
15 207 -1 111 -4 164 -5 118 l-4 -84 -57 60 c-36 36 -62 75 -69 99 -15 48 -17
226 -3 204 7 -10 10 -11 10 -2 0 26 18 10 40 -39 l24 -51 12 34 c7 18 13 44
14 58 0 14 7 34 15 44 14 18 15 16 15 -34 0 -29 2 -51 5 -49 2 3 7 102 10 220
3 118 8 224 10 236 4 15 14 23 33 25 25 3 28 8 35 59 4 31 4 98 0 149 l-8 93
-153 4 c-136 4 -155 2 -166 -13 -12 -15 -13 -15 -19 0 -6 14 -27 16 -156 16
-148 0 -151 0 -156 -22z m382 -310 c-3 -8 -6 -5 -6 6 -1 11 2 17 5 13 3 -3 4
-12 1 -19z m-98 -576 c28 -124 28 -142 -3 -142 -31 0 -36 20 -36 155 1 125 8
123 39 -13z"/>
<path d="M3152 3680 c0 -14 2 -19 5 -12 2 6 2 18 0 25 -3 6 -5 1 -5 -13z"/>
<path d="M6022 3650 c0 -19 2 -27 5 -17 2 9 2 25 0 35 -3 9 -5 1 -5 -18z"/>
<path d="M2148 2604 c-43 -23 -85 -81 -102 -143 -20 -71 -20 -109 0 -186 8
-33 18 -70 21 -82 4 -18 0 -25 -21 -33 -32 -12 -32 -27 -11 -215 21 -187 17
-175 74 -175 31 0 51 5 54 13 3 9 10 9 31 -2 35 -19 114 -18 153 3 17 8 47 34
67 58 l36 42 0 -57 0 -57 220 0 220 0 6 28 c14 63 18 68 24 22 l5 -45 551 -3
552 -2 6 26 c4 15 6 57 5 95 -1 38 0 71 3 74 2 3 16 -39 29 -93 l25 -97 190 0
189 0 3 103 c2 85 0 103 -13 108 -28 11 -15 24 25 24 41 0 52 -12 25 -28 -13
-7 -15 -26 -13 -108 l3 -99 255 0 255 0 1 63 c1 34 3 65 6 68 3 2 19 -27 37
-66 l31 -70 95 0 96 0 -3 108 -3 107 -33 5 c-29 4 -38 14 -70 72 l-37 67 22
18 c25 22 37 62 25 81 -7 11 -15 8 -37 -12 -34 -32 -56 -35 -28 -4 32 36 43
63 50 128 3 33 10 60 14 60 12 0 29 -35 29 -60 0 -12 5 -18 10 -15 6 3 10 34
10 68 -1 102 -43 172 -128 208 -39 17 -65 19 -206 17 l-161 -3 0 -105 c0 -98
1 -105 20 -105 19 0 20 -8 23 -204 1 -114 -2 -209 -7 -214 -22 -22 -46 13 -69
99 -13 48 -31 93 -40 100 -13 9 -18 30 -19 86 -2 78 -48 315 -65 336 -6 7 -35
12 -73 12 -76 0 -61 35 -145 -330 -34 -146 -63 -272 -66 -280 -2 -8 -17 -23
-34 -32 l-30 -17 0 213 c0 220 4 242 41 234 11 -2 14 19 14 102 l0 105 -113 3
-113 3 -11 -32 -11 -31 -13 31 -13 31 -360 0 c-273 -1 -360 -3 -364 -13 -2 -7
-15 -90 -28 -184 -12 -95 -26 -170 -30 -165 -4 4 -16 83 -28 177 -12 93 -25
173 -29 177 -5 5 -62 7 -128 6 l-119 -3 -5 -70 -5 -70 -13 45 c-6 25 -16 56
-20 70 l-7 25 -210 0 -210 0 -6 -70 c-3 -38 -6 -60 -7 -48 -1 12 -7 45 -13 73
l-11 50 -42 0 c-23 0 -47 -5 -53 -11 -8 -8 -13 -8 -17 0 -10 16 -126 12 -158
-5z m901 -267 c1 -64 2 -67 20 -55 18 11 19 20 14 95 -6 81 1 100 24 71 18
-22 52 -149 68 -251 14 -90 14 -99 -1 -114 -13 -14 -17 -14 -25 -2 -5 8 -9 19
-9 26 0 7 -10 38 -21 69 -18 48 -23 54 -31 39 -8 -14 -12 -15 -19 -4 -13 21
-20 5 -28 -60 -4 -33 -10 -64 -14 -67 -9 -9 -9 220 0 322 6 73 8 76 14 39 5
-22 8 -70 8 -108z m-456 46 c4 -38 7 -89 7 -115 0 -29 6 -53 16 -62 13 -13 13
-16 1 -16 -14 0 -27 -92 -27 -192 0 -27 -4 -38 -12 -36 -8 3 -15 33 -19 80 -4
42 -12 105 -19 141 -10 51 -11 78 -2 119 6 29 14 74 18 101 10 71 30 60 37
-20z m1097 -184 c-1 -137 -5 -241 -11 -244 -10 -7 -10 -9 -14 60 -1 28 -12 92
-24 142 -19 84 -20 96 -7 135 8 24 18 66 22 93 8 58 12 68 25 59 6 -3 9 -102
9 -245z m503 -49 c-4 -69 -6 -137 -5 -152 4 -31 -7 -41 -29 -25 -23 17 -88
121 -106 170 -19 54 -42 160 -36 170 7 11 23 8 23 -5 0 -6 13 -32 29 -57 16
-25 39 -81 50 -125 32 -127 43 -121 40 24 -1 72 4 163 12 215 l14 90 8 -90 c4
-49 4 -146 0 -215z m-2091 190 c3 -38 11 -78 18 -87 7 -10 -1 -3 -19 15 -25
26 -31 41 -31 76 0 100 25 97 32 -4z m170 42 c17 -14 16 -32 -1 -32 -15 0 -61
42 -56 50 7 11 34 2 57 -18z m226 16 c13 -13 18 -361 6 -392 -13 -34 -22 -12
-26 67 -3 60 -11 96 -28 131 l-23 49 22 18 c19 16 21 24 16 64 -10 65 4 92 33
63z m477 -10 c3 -13 4 -106 3 -208 -3 -172 -4 -185 -22 -188 -17 -4 -18 0 -10
35 15 70 11 115 -11 127 -11 6 -32 19 -47 29 -14 9 -29 17 -32 17 -3 0 -11
-20 -17 -45 -18 -71 -29 -63 -29 20 0 67 2 76 16 71 17 -7 92 29 110 53 8 10
8 25 2 49 -5 18 -7 40 -4 48 8 22 35 16 41 -8z m605 -53 c4 -60 7 -67 17 -50
11 17 12 12 12 -35 -1 -30 -3 -47 -6 -37 -2 9 -9 15 -14 12 -5 -4 -9 -58 -9
-121 l0 -114 -45 0 -45 0 0 204 c0 220 -1 217 55 213 30 -2 30 -3 35 -72z
m258 -137 l2 -208 -45 0 -45 0 0 203 c0 112 3 207 7 211 4 4 23 6 43 4 l35 -3
3 -207z m266 112 l6 -85 -20 80 c-19 78 -19 118 0 99 5 -5 12 -47 14 -94z
m930 74 c17 -6 21 -40 8 -60 -6 -11 -39 -18 -69 -15 -14 1 -18 62 -6 74 8 9
46 9 67 1z m-458 -71 c7 -10 14 -28 14 -41 0 -12 7 -25 15 -28 8 -3 19 -22 25
-42 12 -43 13 -122 3 -122 -19 0 -55 73 -63 127 -5 32 -12 73 -16 91 -7 35 2
41 22 15z m-556 -243 c6 -25 13 -53 16 -62 4 -14 -1 -18 -24 -18 l-29 0 -7 92
c-3 50 -6 107 -5 127 0 32 3 29 20 -29 10 -36 24 -85 29 -110z m-695 -37 c-3
-24 -11 -43 -17 -43 -6 0 -8 13 -5 33 3 17 10 59 14 92 l8 60 3 -50 c2 -27 1
-69 -3 -92z m-201 14 c4 -39 3 -56 -4 -52 -5 3 -10 31 -10 62 0 70 5 66 14
-10z m1974 34 c3 -16 -1 -22 -10 -19 -7 3 -15 15 -16 27 -3 16 1 22 10 19 7
-3 15 -15 16 -27z m-2800 -53 c22 -19 14 -38 -17 -38 -22 0 -38 10 -65 41 -19
23 -33 45 -31 50 5 7 86 -31 113 -53z m916 6 c3 -9 6 -25 6 -37 -1 -22 -1 -22
-12 -2 -11 19 -12 18 -24 -10 -10 -24 -13 -26 -14 -9 0 22 21 74 31 74 4 0 10
-7 13 -16z m1766 -30 c0 -8 -4 -14 -10 -14 -5 0 -10 9 -10 21 0 11 5 17 10 14
6 -3 10 -13 10 -21z m-2913 -46 c-3 -8 -6 -5 -6 6 -1 11 2 17 5 13 3 -3 4 -12
1 -19z"/>
</g>
</svg>
